<?xml version='1.0' encoding='iso-8859-1'?>
<svg version="1.1" xmlns="http://www.w3.org/2000/svg" viewBox="0 0 313.622 313.622" xmlns:xlink="http://www.w3.org/1999/xlink" enable-background="new 0 0 313.622 313.622">
  <g>
    <g>
      <g>
        <path d="m233.822,81.969c0.943-0.943 1.47-2.218 1.47-3.548s-0.527-2.609-1.47-3.548l-73.463-73.462c-1.882-1.882-5.214-1.882-7.096-1.33227e-15l-73.462,73.463c-1.962,1.962-1.962,5.134 0,7.096l71.992,71.992v123.715c-7.683,2.198-13.349,9.193-13.349,17.579 0,10.147 8.235,18.367 18.367,18.367 10.127,0 18.367-8.22 18.367-18.367 0-8.385-5.676-15.381-13.349-17.579v-123.716l71.993-71.992zm-77.011-69.914l66.366,66.366-65.137,65.137c-0.401-0.105-0.793-0.246-1.224-0.246-0.442,0-0.823,0.146-1.234,0.246l-65.132-65.137 66.361-66.366z"/>
        <circle cx="156.811" cy="78.421" r="14.693"/>
      </g>
    </g>
  </g>
</svg>
