<?xml version='1.0' encoding='iso-8859-1'?>
<svg version="1.1" xmlns="http://www.w3.org/2000/svg" viewBox="0 0 292.167 292.167" xmlns:xlink="http://www.w3.org/1999/xlink" enable-background="new 0 0 292.167 292.167">
  <g>
    <g>
      <path d="m211.848,65.764c0-36.262-29.502-65.764-65.764-65.764s-65.764,29.502-65.764,65.764c0,35.057 27.58,63.717 62.171,65.599l.01,124.854c-7.688,2.193-13.359,9.193-13.359,17.584 0,10.147 8.235,18.367 18.367,18.367s18.362-8.22 18.362-18.367c0-8.38-5.661-15.376-13.333-17.574l-.01-125.01c33.25-3.252 59.32-31.359 59.32-65.453zm-121.497,0c0-30.732 24.996-55.728 55.728-55.728s55.728,25.001 55.728,55.728c0,28.554-21.583,52.135-49.289,55.341v-41.611c5.57-2.088 9.56-7.417 9.56-13.72 0-8.115-6.584-14.693-14.688-14.693s-14.693,6.579-14.693,14.693c0,6.383 4.095,11.758 9.781,13.79v41.767c-29.043-1.872-52.127-26.044-52.127-55.567z"/>
    </g>
  </g>
</svg>
