<?xml version="1.0" standalone="no"?>
<!DOCTYPE svg PUBLIC "-//W3C//DTD SVG 20010904//EN"
 "http://www.w3.org/TR/2001/REC-SVG-20010904/DTD/svg10.dtd">
<svg version="1.0" xmlns="http://www.w3.org/2000/svg"
 width="256.000000pt" height="256.000000pt" viewBox="0 0 256.000000 256.000000"
 preserveAspectRatio="xMidYMid meet">
<metadata>
Created by potrace 1.14, written by Peter Selinger 2001-2017
</metadata>
<g transform="translate(0.000000,256.000000) scale(0.100000,-0.100000)"
fill="#000000" stroke="none">
<path d="M704 1331 l1 -1026 345 1 c288 0 359 3 430 18 47 10 89 21 95 25 5 4
26 14 45 21 164 64 304 234 334 411 12 68 13 176 2 224 -14 62 -22 85 -47 137
-58 116 -190 211 -332 240 l-69 14 77 38 c179 89 278 251 277 456 0 182 -95
326 -267 406 -112 52 -164 57 -546 59 l-346 2 1 -1026z m663 793 c121 -25 198
-84 229 -176 23 -69 16 -194 -15 -265 -23 -52 -94 -127 -141 -150 -54 -26
-101 -42 -142 -48 -36 -5 -266 -10 -334 -6 -21 1 -21 3 -21 332 l1 330 180 -2
c100 -1 209 -8 243 -15z m33 -880 c127 -24 211 -73 261 -153 38 -59 52 -110
52 -192 -1 -175 -90 -296 -258 -351 -64 -20 -89 -22 -290 -23 l-220 0 -1 368
0 368 193 -2 c111 -1 223 -7 263 -15z"/>
</g>
</svg>
