<svg width="14" height="12" viewBox="0 0 14 12" fill="none" xmlns="http://www.w3.org/2000/svg">
<path fill-rule="evenodd" clip-rule="evenodd" d="M3.78016 1.33333L5.00016 0H9.00016L10.2202 1.33333H12.3335C13.0668 1.33333 13.6668 1.93333 13.6668 2.66667V10.6667C13.6668 11.4 13.0668 12 12.3335 12H1.66683C0.933496 12 0.333496 11.4 0.333496 10.6667V2.66667C0.333496 1.93333 0.933496 1.33333 1.66683 1.33333H3.78016ZM3.66683 6.66667C3.66683 8.50667 5.16016 10 7.00016 10C8.84016 10 10.3335 8.50667 10.3335 6.66667C10.3335 4.82667 8.84016 3.33333 7.00016 3.33333C5.16016 3.33333 3.66683 4.82667 3.66683 6.66667ZM7.00015 8.80007C8.17835 8.80007 9.13348 7.84494 9.13348 6.66673C9.13348 5.48852 8.17835 4.5334 7.00015 4.5334C5.82194 4.5334 4.86681 5.48852 4.86681 6.66673C4.86681 7.84494 5.82194 8.80007 7.00015 8.80007Z" fill="#969696"/>
</svg>
