<?xml version="1.0" standalone="no"?>
<!DOCTYPE svg PUBLIC "-//W3C//DTD SVG 20010904//EN"
 "http://www.w3.org/TR/2001/REC-SVG-20010904/DTD/svg10.dtd">
<svg version="1.0" xmlns="http://www.w3.org/2000/svg"
 width="1024.000000pt" height="1024.000000pt" viewBox="0 0 1024.000000 1024.000000"
 preserveAspectRatio="xMidYMid meet">
<metadata>
Created by potrace 1.14, written by Peter Selinger 2001-2017
</metadata>
<g transform="translate(0.000000,1024.000000) scale(0.100000,-0.100000)"
fill="#000000" stroke="none">
<path d="M2265 9905 c-145 -20 -176 -26 -201 -35 -13 -5 -31 -7 -39 -4 -8 4
-15 1 -15 -6 0 -6 -6 -10 -12 -7 -7 2 -30 -2 -50 -9 -21 -7 -38 -11 -38 -8 0
2 -9 0 -21 -6 -11 -7 -33 -14 -47 -16 -15 -3 -32 -10 -39 -16 -7 -6 -13 -7
-13 -3 0 4 -6 3 -12 -2 -12 -10 -84 -37 -100 -38 -4 0 -13 -6 -19 -12 -7 -7
-18 -13 -24 -13 -27 0 -282 -136 -313 -167 -7 -7 -20 -13 -28 -13 -8 0 -14 -4
-14 -8 0 -4 -14 -16 -30 -26 -66 -39 -230 -180 -331 -284 -94 -98 -258 -304
-258 -325 0 -4 -7 -14 -15 -23 -9 -8 -37 -54 -63 -102 -25 -48 -51 -90 -56
-93 -5 -3 -8 -10 -8 -15 2 -19 -11 -44 -21 -44 -6 0 -9 -3 -5 -6 5 -5 -5 -33
-58 -159 -22 -52 -40 -108 -50 -160 -3 -16 -9 -32 -13 -35 -4 -3 -8 -14 -9
-25 -1 -11 -8 -50 -16 -86 -9 -36 -18 -81 -21 -100 -29 -192 -30 -230 -30
-2914 0 -2343 3 -2869 19 -2895 1 -3 6 -27 9 -55 4 -27 12 -70 18 -95 5 -25
12 -58 14 -73 2 -15 8 -37 14 -47 6 -11 8 -20 4 -20 -3 0 -1 -7 6 -15 7 -8 10
-15 6 -15 -3 0 1 -17 9 -38 9 -20 16 -39 17 -42 0 -3 2 -9 3 -15 2 -5 6 -19 8
-30 34 -131 226 -482 337 -615 8 -10 26 -33 40 -50 79 -100 206 -226 309 -310
24 -19 49 -40 55 -45 6 -6 40 -31 76 -55 36 -25 67 -48 68 -52 2 -5 7 -8 12
-8 4 0 37 -17 71 -38 55 -33 187 -99 294 -147 37 -17 145 -56 165 -60 8 -2 15
-4 15 -5 0 -1 11 -3 25 -6 14 -2 34 -8 45 -14 11 -5 47 -14 80 -21 33 -7 65
-14 70 -15 30 -8 57 -13 110 -19 33 -4 69 -10 80 -14 11 -3 1278 -7 2815 -8
2317 -1 2811 1 2890 12 52 7 97 13 100 13 3 0 7 1 10 2 7 2 30 7 70 15 19 3
51 10 70 15 19 5 46 11 60 14 25 4 43 10 78 23 9 3 20 7 25 8 4 2 9 4 12 5 3
1 10 4 15 5 6 1 11 3 13 5 1 1 9 3 17 5 58 11 330 138 403 188 21 14 47 29 58
32 10 4 19 11 19 16 0 5 5 9 11 9 12 0 192 134 248 184 107 97 206 204 289
311 34 44 67 85 72 92 6 7 10 17 10 23 0 5 5 10 10 10 6 0 10 5 10 11 0 6 10
25 23 42 55 77 175 325 217 447 18 52 35 102 38 110 3 8 4 19 3 23 0 4 3 16 8
25 5 9 12 33 15 52 8 40 14 65 16 65 1 0 3 11 4 25 3 23 11 71 22 124 16 84
19 482 19 2896 0 2398 -3 2827 -20 2890 -2 8 -7 31 -10 50 -3 19 -8 42 -10 50
-2 8 -6 32 -10 54 -3 21 -8 42 -11 47 -3 5 -7 22 -10 37 -3 15 -7 34 -11 42
-3 8 -8 21 -10 28 -1 6 -5 18 -6 25 -2 6 -7 19 -10 27 -3 8 -13 35 -21 60 -18
55 -39 107 -73 180 -14 30 -25 57 -25 60 0 3 -7 13 -15 23 -9 9 -13 17 -9 17
4 0 -9 25 -29 55 -19 31 -35 58 -35 61 0 6 -120 184 -130 194 -3 3 -23 28 -45
55 -22 28 -47 58 -55 69 -19 23 -188 192 -229 229 -17 15 -35 27 -40 27 -5 0
-11 4 -13 8 -3 8 -86 74 -128 102 -12 8 -28 21 -36 28 -7 7 -17 13 -21 14 -8
1 -54 29 -63 38 -3 3 -18 12 -35 20 -16 8 -32 17 -35 20 -14 14 -267 130 -284
130 -6 0 -16 4 -21 8 -8 7 -106 41 -137 48 -5 1 -9 2 -10 4 -2 1 -10 3 -18 5
-8 2 -51 13 -95 23 -44 11 -114 25 -155 32 -41 6 -86 15 -100 18 -14 4 -1285
7 -2825 8 -2208 1 -2819 -1 -2890 -11z"/>
</g>
</svg>
