<svg width="0" height="0" class="hidden">
  <symbol fill="none" xmlns="http://www.w3.org/2000/svg" viewBox="0 0 60 61" id="icon-ok">
    <path fill-rule="evenodd" clip-rule="evenodd" d="M30 0.546839C34.1242 0.546839 38.0156 1.32023 41.6718 2.867C45.3281 4.41403 48.5141 6.54759 51.2343 9.26541C53.9523 11.9857 56.0859 15.1717 57.6328 18.8281C59.1796 22.4843 59.9531 26.3756 59.9531 30.4999C59.9531 34.6263 59.1796 38.5154 57.6328 42.1718C56.0859 45.828 53.9523 49.0162 51.2343 51.7343C48.5141 54.4544 45.3281 56.5859 41.6718 58.1327C38.0156 59.6795 34.1242 60.4531 30 60.4531C25.8735 60.4531 21.9843 59.6795 18.3281 58.1327C14.6718 56.5859 11.4836 54.4544 8.76562 51.7343C6.04543 49.0162 3.914 45.828 2.36716 42.1718C0.820258 38.5154 0.046808 34.6263 0.046808 30.4999C0.046808 26.3756 0.820258 22.4843 2.36716 18.8281C3.914 15.1717 6.04543 11.9857 8.76562 9.26541C11.4836 6.54759 14.6718 4.41403 18.3281 2.867C21.9843 1.32023 25.8735 0.546839 30 0.546839ZM30 58.0624C33.8429 58.0624 37.4288 57.3374 40.7578 55.8828C44.0844 54.4302 47.0156 52.4857 49.5469 50.0467C51.9836 47.5155 53.9282 44.5867 55.3827 41.2576C56.8351 37.9309 57.5625 34.345 57.5625 30.4999C57.5625 26.6569 56.8351 23.0708 55.3827 19.742C53.9282 16.4153 51.9836 13.4841 49.5469 10.9529C47.0156 8.51621 44.0844 6.57178 40.7578 5.11717C37.4288 3.66458 33.8429 2.93725 30 2.93725C26.1548 2.93725 22.5688 3.66458 19.2421 5.11717C15.9132 6.57178 12.9843 8.51621 10.453 10.9529C8.01412 13.4841 6.06955 16.4153 4.6172 19.742C3.16256 23.0708 2.4374 26.6569 2.4374 30.4999C2.4374 34.345 3.16256 37.9309 4.6172 41.2576C6.06955 44.5867 8.01412 47.5155 10.453 50.0467C12.9843 52.4857 15.9132 54.4302 19.2421 55.8828C22.5688 57.3374 26.1548 58.0624 30 58.0624ZM45.0468 19.8123C45.3281 19.4388 45.7258 19.25 46.2421 19.25C46.7563 19.25 47.2023 19.4388 47.5781 19.8123C47.8593 20.188 48 20.6341 48 21.1483C48 21.6646 47.8109 22.0625 47.4375 22.3438L26.9063 42.3123C26.8117 42.5012 26.6469 42.6178 26.414 42.6639C26.1789 42.7122 25.968 42.7342 25.7812 42.7342C25.4999 42.7342 25.2407 42.7122 25.0078 42.6639C24.7727 42.6178 24.6079 42.5012 24.5155 42.3123L16.4999 34.2966C16.1242 33.9232 15.9375 33.4772 15.9375 32.9609C15.9375 32.4466 16.1242 32.0467 16.4999 31.7654C16.7812 31.392 17.179 31.2031 17.6953 31.2031C18.2095 31.2031 18.6554 31.392 19.0311 31.7654L25.7812 38.5154L45.0468 19.8123Z" fill="#FF6363"></path>
  </symbol>
  <symbol fill="none" xmlns="http://www.w3.org/2000/svg" viewBox="0 0 62 59" id="icon-hand">
    <path fill-rule="evenodd" clip-rule="evenodd" d="M61.5859 28.6561C61.5859 29.3131 61.4914 29.9218 61.3046 30.4841C61.1157 31.0467 60.8344 31.563 60.4609 32.0311C60.0852 32.5014 59.6633 32.8748 59.1953 33.1561C58.7251 33.4374 58.2109 33.6724 57.6484 33.8592C57.9296 34.3294 58.1626 34.8218 58.3515 35.3357C58.5382 35.8523 58.6328 36.4388 58.6328 37.0936C58.6328 37.6562 58.5382 38.2185 58.3515 38.7812C58.1626 39.3438 57.9296 39.86 57.6484 40.3279C57.2727 40.7036 56.8508 41.0552 56.3827 41.3826C55.9125 41.7123 55.4445 41.9694 54.9765 42.1562C55.2577 42.6264 55.4906 43.1404 55.6797 43.703C55.8664 44.2656 55.9609 44.828 55.9609 45.3906C55.9609 46.0473 55.8664 46.6342 55.6797 47.1484C55.4906 47.6646 55.2577 48.1567 54.9765 48.6249C54.6008 49.0951 54.1789 49.4927 53.7108 49.8201C53.2407 50.1498 52.7265 50.3608 52.164 50.4529C52.5375 50.9231 52.8188 51.4155 53.0077 51.9295C53.1946 52.446 53.289 53.0325 53.289 53.6873C53.289 54.3443 53.1484 55.0014 52.8671 55.6561C52.5859 56.3132 52.2102 56.8756 51.7421 57.3437C51.1797 57.8139 50.5688 58.1874 49.914 58.4687C49.2571 58.75 48.5539 58.8905 47.8046 58.8905H29.2421C28.5852 58.8905 27.8359 58.7984 26.9922 58.6092C26.1484 58.4226 25.2563 58.1413 24.3203 57.7655C23.382 57.4842 22.4438 57.1327 21.5078 56.7108C20.5695 56.289 19.6313 55.8911 18.6952 55.5154C17.5702 55.0475 16.4672 54.5796 15.3905 54.1091C14.3117 53.6412 13.5383 53.406 13.0702 53.406H0.273408V25.9843L1.3984 25.8435C6.74214 25.8435 10.3984 25.8435 12.3672 25.8435C13.2109 25.8435 13.9843 25.7514 14.6875 25.5623C15.3905 25.3757 16.1157 24.9999 16.8671 24.4373C17.7108 23.9694 18.6711 23.3123 19.75 22.4687C20.8266 21.6248 22.1164 20.5943 23.6171 19.3749C26.5219 16.9381 28.2336 13.8904 28.75 10.2342C29.2641 6.57809 29.5234 4.46871 29.5234 3.90611C29.5234 3.3435 29.664 2.80536 29.9453 2.28882C30.2265 1.77483 30.6001 1.37491 31.0703 1.09358C31.5383 0.720139 32.0304 0.460767 32.5468 0.320223C33.0609 0.179435 33.5532 0.109163 34.0234 0.109163C34.7726 0.109163 35.5219 0.203652 36.2733 0.390495C37.0227 0.579351 37.7257 1.00147 38.3828 1.65618C39.0376 2.31303 39.5539 3.18106 39.9297 4.25765C40.3032 5.33656 40.4922 6.76701 40.4922 8.54668C40.4922 10.1418 40.3735 11.6647 40.1405 13.117C39.9055 14.5717 39.6001 15.9537 39.2265 17.2655C38.9453 18.5794 38.5937 19.7748 38.1718 20.8514C37.75 21.9303 37.3984 22.8445 37.1172 23.5937H56.2421C57.0859 23.5937 57.8109 23.7123 58.4219 23.9452C59.0305 24.1802 59.6172 24.5317 60.1796 24.9999C60.6477 25.4701 60.9992 26.0085 61.2343 26.617C61.4673 27.2279 61.5859 27.9069 61.5859 28.6561ZM56.2421 31.6093C56.7102 31.6093 57.132 31.5388 57.5078 31.3983C57.8813 31.2578 58.1626 31.0467 58.3515 30.7654C58.6328 30.4841 58.8657 30.1809 59.0547 29.8515C59.2414 29.5242 59.3359 29.1263 59.3359 28.6561C59.3359 27.9069 59.0547 27.2498 58.4922 26.6875C57.9296 26.1249 57.1782 25.8435 56.2421 25.8435H47.8046C47.8046 25.938 47.8046 25.938 47.8046 25.8435H33.3203L34.164 24.156C36.7876 17.6874 38.1016 12.4842 38.1016 8.54668C38.1016 5.45289 37.5852 3.64899 36.5547 3.13275C35.5219 2.61846 34.6782 2.35933 34.0234 2.35933C33.7421 2.35933 33.3203 2.49988 32.7578 2.78115C32.1952 3.06248 31.914 3.43824 31.914 3.90611C31.914 4.46871 31.8657 5.40683 31.7734 6.71864C31.679 8.0327 31.3976 9.5311 30.9297 11.2187C30.4594 12.9062 29.7805 14.6419 28.8905 16.4218C27.9985 18.2036 26.757 19.7506 25.164 21.0624C23.5688 22.3763 22.2328 23.477 21.1562 24.367C20.0773 25.259 19.0688 25.9843 18.1327 26.5467C17.1945 27.1093 16.2563 27.5311 15.3203 27.8124C14.382 28.0937 13.3976 28.2342 12.3672 28.2342C11.6157 28.2342 10.7962 28.2342 9.90618 28.2342C9.01408 28.2342 8.1001 28.2342 7.16397 28.2342C6.32026 28.2342 5.49843 28.2342 4.7031 28.2342C3.90541 28.2342 3.2265 28.2342 2.664 28.2342V51.0156H13.0702C13.725 51.0156 14.593 51.2264 15.6719 51.6482C16.7485 52.0702 18.0844 52.6107 19.6796 53.2655C20.4289 53.6412 21.2485 54.0388 22.1406 54.4607C23.0305 54.8828 23.8984 55.2343 24.7421 55.5154C25.6782 55.7967 26.5219 56.0561 27.2733 56.289C28.0227 56.524 28.6796 56.6406 29.2421 56.6406H44.8515H47.8046C48.2726 56.6406 48.6946 56.5482 49.0703 56.3593C49.4438 56.1724 49.7734 55.9375 50.0547 55.6561C50.3359 55.4693 50.5468 55.188 50.6874 54.8123C50.8281 54.4388 50.8984 54.0631 50.8984 53.6873C50.8984 53.2194 50.8281 52.8218 50.6874 52.4921C50.5468 52.1647 50.3359 51.8592 50.0547 51.5779C49.7734 51.2969 49.4438 51.0858 49.0703 50.9453C48.6946 50.8046 48.2726 50.7343 47.8046 50.7343H47.5234V48.3436H50.7577C51.1313 48.3436 51.507 48.2734 51.8828 48.1328C52.2563 47.992 52.5859 47.7813 52.8671 47.4999C53.0539 47.2187 53.2407 46.8913 53.4296 46.5155C53.6164 46.1421 53.7108 45.7663 53.7108 45.3906C53.7108 45.0169 53.6164 44.6411 53.4296 44.2656C53.2407 43.8919 53.0539 43.5625 52.8671 43.2812C52.5859 43.0943 52.2563 42.9075 51.8828 42.7186C51.507 42.532 51.1313 42.4373 50.7577 42.4373H49.7734V40.0468H53.289C53.6625 40.0468 54.0383 39.9763 54.414 39.8358C54.7876 39.6953 55.1172 39.4842 55.3984 39.203C55.6797 38.9216 55.9125 38.5942 56.1016 38.2185C56.2883 37.845 56.3827 37.4693 56.3827 37.0936C56.3827 36.6257 56.2883 36.2038 56.1016 35.8281C55.9125 35.4544 55.6797 35.1734 55.3984 34.9842C55.1172 34.7029 54.7876 34.4702 54.414 34.2811C54.0383 34.0945 53.6625 33.9998 53.289 33.9998H52.164V31.6093H56.2421Z" fill="#00A2FF"></path>
  </symbol>
  <symbol fill="none" xmlns="http://www.w3.org/2000/svg" viewBox="0 0 58 57" id="icon-search">
    <path fill-rule="evenodd" clip-rule="evenodd" d="M57.2656 53.8123L54.3124 56.7656L37.9999 40.4529C37.0617 41.2968 36.0312 42.0483 34.9062 42.7031C33.7812 43.3601 32.6079 43.9224 31.3906 44.3906C30.1711 44.8608 28.8813 45.2123 27.5233 45.4453C26.1633 45.6803 24.8273 45.7969 23.5156 45.7969C20.3273 45.7969 17.35 45.1881 14.5859 43.9685C11.8195 42.7514 9.40472 41.11 7.34372 39.0467C5.28044 36.9856 3.66326 34.571 2.49212 31.8046C1.31882 29.0404 0.7343 26.1093 0.7343 23.0155C0.7343 19.8295 1.31882 16.8521 2.49212 14.0859C3.66326 11.3218 5.28044 8.90693 7.34372 6.84364C9.40472 4.78259 11.8195 3.16528 14.5859 1.99201C17.35 0.820976 20.3273 0.234162 23.5156 0.234162C26.6094 0.234162 29.5383 0.820976 32.3047 1.99201C35.0688 3.16528 37.4836 4.78259 39.5469 6.84364C41.6079 8.90693 43.2493 11.3218 44.4687 14.0859C45.686 16.8521 46.2968 19.8295 46.2968 23.0155C46.2968 24.3293 46.1781 25.6653 45.9453 27.0232C45.7101 28.3834 45.3585 29.6733 44.8906 30.8904C44.4203 32.1101 43.8579 33.2811 43.2031 34.4061C42.5461 35.531 41.7968 36.5638 40.9531 37.4999L57.2656 53.8123ZM3.12494 23.0155C3.12494 25.828 3.63914 28.4537 4.6718 30.8904C5.7023 33.3295 7.15478 35.485 9.03122 37.3593C10.9054 39.2358 13.0851 40.7123 15.5703 41.7889C18.0531 42.8677 20.703 43.4062 23.5156 43.4062C26.3281 43.4062 28.9516 42.8677 31.3906 41.7889C33.8273 40.7123 35.9829 39.2358 37.8593 37.3593C39.7336 35.485 41.2101 33.3295 42.289 30.8904C43.3657 28.4537 43.9062 25.828 43.9062 23.0155C43.9062 20.203 43.3657 17.5552 42.289 15.0701C41.2101 12.5872 39.7336 10.4076 37.8593 8.53115C35.9829 6.65678 33.8273 5.20444 31.3906 4.17165C28.9516 3.14115 26.3281 2.62484 23.5156 2.62484C20.703 2.62484 18.0531 3.14115 15.5703 4.17165C13.0851 5.20444 10.9054 6.65678 9.03122 8.53115C7.15478 10.4076 5.7023 12.5872 4.6718 15.0701C3.63914 17.5552 3.12494 20.203 3.12494 23.0155Z" fill="#5474FD"></path>
  </symbol>
</svg>