<?xml version="1.0" standalone="no"?>
<!DOCTYPE svg PUBLIC "-//W3C//DTD SVG 20010904//EN"
 "http://www.w3.org/TR/2001/REC-SVG-20010904/DTD/svg10.dtd">
<svg version="1.0" xmlns="http://www.w3.org/2000/svg"
 width="96.000000pt" height="96.000000pt" viewBox="0 0 96.000000 96.000000"
 preserveAspectRatio="xMidYMid meet">
<metadata>
Created by potrace 1.14, written by Peter Selinger 2001-2017
</metadata>
<g transform="translate(0.000000,96.000000) scale(0.100000,-0.100000)"
fill="#000000" stroke="none">
<path d="M63 902 c-27 -4 -24 50 -24 -476 0 -197 2 -360 4 -362 4 -4 84 -7
140 -5 l27 1 0 263 c0 145 3 267 7 270 3 4 48 -94 99 -217 51 -123 97 -233
103 -243 8 -16 20 -19 61 -18 28 1 54 6 59 11 5 5 33 67 61 139 29 72 58 144
65 160 7 17 25 60 40 98 16 37 32 67 37 67 4 0 8 -119 8 -264 l0 -265 43 -3
c23 -2 61 -1 85 1 l42 3 1 197 c1 425 -1 634 -5 639 -6 5 -196 6 -200 1 -2 -2
-49 -116 -105 -254 -57 -137 -110 -265 -118 -283 l-15 -32 -65 157 c-35 87
-85 208 -109 269 -25 62 -51 120 -58 129 -10 14 -29 18 -87 19 -41 1 -84 0
-96 -2z"/>
</g>
</svg>
