<svg width="43" height="25" viewBox="0 0 43 25" fill="none" xmlns="http://www.w3.org/2000/svg">
<path d="M11.8825 16.3484L11.8895 18.9851L4.31143 19.0054L4.30443 16.3687L11.8825 16.3484ZM5.49439 4.78342L5.53213 19.0021L2.10441 19.0113L2.06667 4.79261L5.49439 4.78342ZM10.8902 10.4135L10.897 12.9623L4.29544 12.98L4.28867 10.4312L10.8902 10.4135ZM11.8811 4.7663L11.8881 7.41278L4.28072 7.43317L4.27369 4.7867L11.8811 4.7663ZM25.933 4.72863L25.9707 18.9473L22.5528 18.9565L17.5 10.1223L17.5235 18.97L14.0958 18.9792L14.058 4.76046L17.4858 4.75127L22.5385 13.5854L22.515 4.73779L25.933 4.72863ZM40.9493 11.3095L40.9648 17.1493C40.7247 17.4169 40.3543 17.7043 39.8538 18.0117C39.3598 18.3125 38.7355 18.5713 37.9809 18.7882C37.2263 19.005 36.3379 19.1148 35.3157 19.1176C34.3717 19.1201 33.5152 18.9727 32.7462 18.6753C31.9772 18.3713 31.3152 17.9271 30.7602 17.3427C30.2118 16.7517 29.7867 16.0302 29.485 15.1781C29.1897 14.3195 29.0406 13.3369 29.0377 12.2301L29.0356 11.4391C29.0326 10.3323 29.1798 9.34885 29.477 8.48867C29.7742 7.6285 30.1922 6.90472 30.731 6.31733C31.2763 5.72342 31.9164 5.27248 32.6512 4.96452C33.3926 4.65654 34.206 4.50137 35.0914 4.49899C36.4 4.49549 37.465 4.70097 38.2864 5.11543C39.1078 5.52339 39.7311 6.09138 40.1562 6.81941C40.5813 7.54093 40.8406 8.37682 40.9343 9.3271L37.6433 9.33592C37.577 8.86735 37.4522 8.47054 37.2691 8.14551C37.0924 7.81395 36.8378 7.56399 36.5053 7.39561C36.1728 7.22071 35.7429 7.13398 35.2156 7.13539C34.8054 7.13649 34.4313 7.22538 34.0932 7.40207C33.7617 7.57874 33.4792 7.84643 33.2458 8.20513C33.0123 8.55732 32.8312 9.00051 32.7024 9.53471C32.5801 10.0689 32.5199 10.6941 32.5218 11.4102L32.524 12.2207C32.5259 12.9304 32.5861 13.552 32.7047 14.0855C32.8298 14.619 33.0133 15.0645 33.2551 15.4219C33.5035 15.7728 33.8167 16.0389 34.1948 16.2202C34.5793 16.3949 35.0321 16.4816 35.5529 16.4802C35.9175 16.4792 36.2299 16.4491 36.4901 16.3898C36.7504 16.324 36.965 16.2453 37.1341 16.1537C37.3096 16.0556 37.4428 15.9641 37.5337 15.8792L37.5279 13.6722L35.1451 13.6786L35.1388 11.3251L40.9493 11.3095Z" fill="white"/>
<path d="M11.8825 16.3484L12.8825 16.3457L12.8799 15.3457L11.8799 15.3484L11.8825 16.3484ZM11.8895 18.9851L11.8922 19.9851L12.8922 19.9824L12.8895 18.9824L11.8895 18.9851ZM4.31143 19.0054L3.31143 19.0081L3.31409 20.0081L4.31408 20.0054L4.31143 19.0054ZM4.30443 16.3687L4.30178 15.3687L3.30178 15.3714L3.30444 16.3714L4.30443 16.3687ZM5.49439 4.78342L6.49439 4.78074L6.49174 3.78075L5.49174 3.78343L5.49439 4.78342ZM5.53213 19.0021L5.53478 20.0021L6.53478 19.9994L6.53212 18.9994L5.53213 19.0021ZM2.10441 19.0113L1.10441 19.014L1.10706 20.014L2.10706 20.0113L2.10441 19.0113ZM2.06667 4.79261L2.06402 3.79262L1.06402 3.7953L1.06668 4.79529L2.06667 4.79261ZM10.8902 10.4135L11.8902 10.4108L11.8876 9.41083L10.8876 9.41351L10.8902 10.4135ZM10.897 12.9623L10.8996 13.9623L11.8996 13.9596L11.897 12.9596L10.897 12.9623ZM4.29544 12.98L3.29544 12.9827L3.2981 13.9827L4.29809 13.98L4.29544 12.98ZM4.28867 10.4312L4.28602 9.43121L3.28602 9.43389L3.28868 10.4339L4.28867 10.4312ZM11.8811 4.7663L12.8811 4.76362L12.8784 3.76362L11.8784 3.7663L11.8811 4.7663ZM11.8881 7.41278L11.8908 8.41277L12.8908 8.41009L12.8881 7.41009L11.8881 7.41278ZM4.28072 7.43317L3.28072 7.43585L3.28338 8.43585L4.28337 8.43317L4.28072 7.43317ZM4.27369 4.7867L4.27104 3.7867L3.27104 3.78938L3.2737 4.78938L4.27369 4.7867ZM10.8825 16.3511L10.8895 18.9878L12.8895 18.9824L12.8825 16.3457L10.8825 16.3511ZM11.8869 17.9851L4.30878 18.0054L4.31408 20.0054L11.8922 19.9851L11.8869 17.9851ZM5.31143 19.0027L5.30443 16.366L3.30444 16.3714L3.31143 19.0081L5.31143 19.0027ZM4.30709 17.3687L11.8852 17.3484L11.8799 15.3484L4.30178 15.3687L4.30709 17.3687ZM4.4944 4.7861L4.53213 19.0048L6.53212 18.9994L6.49439 4.78074L4.4944 4.7861ZM5.52947 18.0021L2.10175 18.0113L2.10706 20.0113L5.53478 20.0021L5.52947 18.0021ZM3.1044 19.0086L3.06667 4.78993L1.06668 4.79529L1.10441 19.014L3.1044 19.0086ZM2.06933 5.79261L5.49705 5.78342L5.49174 3.78343L2.06402 3.79262L2.06933 5.79261ZM9.89022 10.4162L9.89698 12.965L11.897 12.9596L11.8902 10.4108L9.89022 10.4162ZM10.8943 11.9623L4.29279 11.98L4.29809 13.98L10.8996 13.9623L10.8943 11.9623ZM5.29544 12.9773L5.28867 10.4285L3.28868 10.4339L3.29544 12.9827L5.29544 12.9773ZM4.29133 11.4312L10.8929 11.4135L10.8876 9.41351L4.28602 9.43121L4.29133 11.4312ZM10.8811 4.76898L10.8881 7.41546L12.8881 7.41009L12.8811 4.76362L10.8811 4.76898ZM11.8855 6.41278L4.27806 6.43317L4.28337 8.43317L11.8908 8.41277L11.8855 6.41278ZM5.28071 7.43049L5.27369 4.78401L3.2737 4.78938L3.28072 7.43585L5.28071 7.43049ZM4.27635 5.78669L11.8837 5.7663L11.8784 3.7663L4.27104 3.7867L4.27635 5.78669ZM25.933 4.72863L26.933 4.72595L26.9303 3.72595L25.9303 3.72863L25.933 4.72863ZM25.9707 18.9473L25.9734 19.9473L26.9734 19.9446L26.9707 18.9446L25.9707 18.9473ZM22.5528 18.9565L21.6847 19.453L21.9736 19.958L22.5554 19.9565L22.5528 18.9565ZM17.5 10.1223L18.3681 9.62585L16.49 6.34224L16.5 10.125L17.5 10.1223ZM17.5235 18.97L17.5261 19.97L18.5261 19.9673L18.5235 18.9673L17.5235 18.97ZM14.0958 18.9792L13.0958 18.9818L13.0984 19.9818L14.0984 19.9792L14.0958 18.9792ZM14.058 4.76046L14.0554 3.76047L13.0554 3.76315L13.058 4.76315L14.058 4.76046ZM17.4858 4.75127L18.3538 4.25477L18.0649 3.74972L17.4831 3.75128L17.4858 4.75127ZM22.5385 13.5854L21.6705 14.0819L23.5486 17.3655L23.5385 13.5827L22.5385 13.5854ZM22.515 4.73779L22.5124 3.73779L21.5124 3.74048L21.515 4.74047L22.515 4.73779ZM24.933 4.73131L24.9707 18.95L26.9707 18.9446L26.933 4.72595L24.933 4.73131ZM25.9681 17.9473L22.5501 17.9565L22.5554 19.9565L25.9734 19.9473L25.9681 17.9473ZM23.4208 18.46L18.3681 9.62585L16.632 10.6189L21.6847 19.453L23.4208 18.46ZM16.5 10.125L16.5235 18.9727L18.5235 18.9673L18.5 10.1197L16.5 10.125ZM17.5208 17.97L14.0931 17.9792L14.0984 19.9792L17.5261 19.97L17.5208 17.97ZM15.0958 18.9765L15.058 4.75778L13.058 4.76315L13.0958 18.9818L15.0958 18.9765ZM14.0607 5.76046L17.4884 5.75127L17.4831 3.75128L14.0554 3.76047L14.0607 5.76046ZM16.6177 5.24778L21.6705 14.0819L23.4066 13.0889L18.3538 4.25477L16.6177 5.24778ZM23.5385 13.5827L23.515 4.73511L21.515 4.74047L21.5385 13.5881L23.5385 13.5827ZM22.5177 5.73779L25.9356 5.72862L25.9303 3.72863L22.5124 3.73779L22.5177 5.73779ZM40.9493 11.3095L41.9493 11.3068L41.9467 10.3068L40.9467 10.3095L40.9493 11.3095ZM40.9648 17.1493L41.709 17.8173L41.9659 17.5311L41.9648 17.1466L40.9648 17.1493ZM39.8538 18.0117L40.3739 18.8658L40.3771 18.8638L39.8538 18.0117ZM37.9809 18.7882L38.2571 19.7493L37.9809 18.7882ZM32.7462 18.6753L32.3786 19.6053L32.3855 19.6079L32.7462 18.6753ZM30.7602 17.3427L30.0272 18.023L30.035 18.0313L30.7602 17.3427ZM29.485 15.1781L28.5393 15.5034L28.5423 15.512L29.485 15.1781ZM30.731 6.31733L29.9944 5.64102L29.9941 5.64136L30.731 6.31733ZM32.6512 4.96452L32.2676 4.04103L32.2647 4.04224L32.6512 4.96452ZM38.2864 5.11543L37.8359 6.00824L37.8416 6.01105L38.2864 5.11543ZM40.1562 6.81941L39.2926 7.32368L39.2946 7.32704L40.1562 6.81941ZM40.9343 9.3271L40.937 10.3271L42.0374 10.3241L41.9295 9.22898L40.9343 9.3271ZM37.6433 9.33592L36.6532 9.47614L36.7753 10.3383L37.646 10.3359L37.6433 9.33592ZM37.2691 8.14551L36.3865 8.61577L36.3921 8.62618L36.3978 8.63645L37.2691 8.14551ZM36.5053 7.39561L36.0398 8.28064L36.0466 8.28424L36.0535 8.28773L36.5053 7.39561ZM34.0932 7.40207L33.6301 6.51579L33.623 6.51954L34.0932 7.40207ZM33.2458 8.20513L34.0793 8.75762L34.0839 8.75054L33.2458 8.20513ZM32.7024 9.53471L31.7302 9.30035L31.7276 9.3116L32.7024 9.53471ZM32.7047 14.0855L31.7285 14.3025L31.7311 14.3138L32.7047 14.0855ZM33.2551 15.4219L32.4269 15.9823L32.4328 15.991L32.4389 15.9996L33.2551 15.4219ZM34.1948 16.2202L33.7624 17.1219L33.7717 17.1264L33.7811 17.1306L34.1948 16.2202ZM36.4901 16.3898L36.7122 17.3648L36.7238 17.3622L36.7353 17.3593L36.4901 16.3898ZM37.1341 16.1537L37.6105 17.033L37.622 17.0266L37.1341 16.1537ZM37.5337 15.8792L38.2161 16.6102L38.5349 16.3126L38.5337 15.8765L37.5337 15.8792ZM37.5279 13.6722L38.5279 13.6695L38.5252 12.6695L37.5252 12.6722L37.5279 13.6722ZM35.1451 13.6786L34.1451 13.6813L34.1477 14.6812L35.1477 14.6786L35.1451 13.6786ZM35.1388 11.3251L35.1362 10.3251L34.1362 10.3277L34.1388 11.3277L35.1388 11.3251ZM39.9493 11.3122L39.9648 17.152L41.9648 17.1466L41.9493 11.3068L39.9493 11.3122ZM40.2207 16.4813C40.0725 16.6464 39.7939 16.875 39.3306 17.1595L40.3771 18.8638C40.9148 18.5337 41.3768 18.1874 41.709 17.8173L40.2207 16.4813ZM39.3338 17.1576C38.9376 17.3988 38.402 17.6267 37.7047 17.8271L38.2571 19.7493C39.0691 19.5159 39.7821 19.2261 40.3739 18.8658L39.3338 17.1576ZM37.7047 17.8271C37.0611 18.012 36.2689 18.115 35.3131 18.1176L35.3184 20.1176C36.4068 20.1147 37.3914 19.9981 38.2571 19.7493L37.7047 17.8271ZM35.3131 18.1176C34.4755 18.1198 33.7445 17.9892 33.1069 17.7426L32.3855 19.6079C33.2859 19.9562 34.2679 20.1204 35.3184 20.1176L35.3131 18.1176ZM33.1138 17.7452C32.4765 17.4934 31.9375 17.1302 31.4854 16.6541L30.035 18.0313C30.6929 18.724 31.4779 19.2493 32.3786 19.6053L33.1138 17.7452ZM31.4932 16.6624C31.0482 16.1829 30.6893 15.5834 30.4276 14.8443L28.5423 15.512C28.8841 16.477 29.3754 17.3205 30.0272 18.0229L31.4932 16.6624ZM30.4306 14.8529C30.1779 14.118 30.0404 13.2476 30.0377 12.2274L28.0377 12.2328C28.0408 13.4261 28.2015 14.5211 28.5393 15.5033L30.4306 14.8529ZM30.0377 12.2274L30.0356 11.4364L28.0356 11.4418L28.0377 12.2328L30.0377 12.2274ZM30.0356 11.4364C30.0329 10.4183 30.1685 9.54942 30.4221 8.81521L28.5318 8.16213C28.1911 9.14827 28.0324 10.2464 28.0356 11.4418L30.0356 11.4364ZM30.4221 8.81521C30.6809 8.06627 31.0339 7.46637 31.4679 6.9933L29.9941 5.64136C29.3504 6.34307 28.8674 7.19072 28.5318 8.16213L30.4221 8.81521ZM31.4676 6.99364C31.9165 6.50471 32.4376 6.13832 33.0377 5.88681L32.2647 4.04224C31.3952 4.40665 30.6361 4.94213 29.9944 5.64102L31.4676 6.99364ZM33.0348 5.88801C33.6436 5.63513 34.3259 5.50105 35.0941 5.49899L35.0887 3.499C34.0861 3.50169 33.1416 3.67796 32.2676 4.04104L33.0348 5.88801ZM35.0941 5.49899C36.3074 5.49574 37.2016 5.68816 37.8359 6.00822L38.7369 4.22264C37.7284 3.71377 36.4926 3.49523 35.0887 3.499L35.0941 5.49899ZM37.8416 6.01105C38.5042 6.34016 38.9745 6.77897 39.2926 7.32368L41.0197 6.31514C40.4876 5.40379 39.7114 4.70661 38.7312 4.21981L37.8416 6.01105ZM39.2946 7.32704C39.6362 7.90694 39.8577 8.59926 39.9391 9.42522L41.9295 9.22898C41.8236 8.15439 41.5263 7.17492 41.0178 6.31178L39.2946 7.32704ZM40.9317 8.3271L37.6407 8.33592L37.646 10.3359L40.937 10.3271L40.9317 8.3271ZM38.6334 9.1957C38.5541 8.63555 38.3985 8.11288 38.1403 7.65457L36.3978 8.63645C36.5059 8.82821 36.5998 9.09914 36.6532 9.47614L38.6334 9.1957ZM38.1516 7.67526C37.879 7.16368 37.4748 6.76562 36.9572 6.50348L36.0535 8.28773C36.2009 8.36235 36.3058 8.46423 36.3865 8.61577L38.1516 7.67526ZM36.9709 6.51057C36.4476 6.23533 35.8413 6.13371 35.2129 6.13539L35.2182 8.13539C35.6445 8.13424 35.8981 8.2061 36.0398 8.28064L36.9709 6.51057ZM35.2129 6.13539C34.6547 6.13689 34.1209 6.2593 33.6301 6.51581L34.5564 8.28833C34.7417 8.19146 34.9561 8.13609 35.2182 8.13539L35.2129 6.13539ZM33.623 6.51954C33.1226 6.78618 32.7202 7.17932 32.4076 7.65971L34.0839 8.75054C34.2381 8.51353 34.4008 8.3713 34.5635 8.2846L33.623 6.51954ZM32.4122 7.65266C32.0983 8.12627 31.8786 8.68512 31.7303 9.30036L33.6746 9.76907C33.7838 9.31591 33.9263 8.98837 34.0793 8.7576L32.4122 7.65266ZM31.7276 9.3116C31.5841 9.93842 31.5198 10.6425 31.5218 11.4129L33.5218 11.4075C33.5201 10.7456 33.5761 10.1994 33.6772 9.75783L31.7276 9.3116ZM31.5218 11.4129L31.524 12.2234L33.524 12.2181L33.5218 11.4075L31.5218 11.4129ZM31.524 12.2234C31.526 12.9851 31.5905 13.6814 31.7285 14.3025L33.6809 13.8685C33.5818 13.4226 33.5257 12.8757 33.524 12.2181L31.524 12.2234ZM31.7311 14.3138C31.8769 14.9354 32.1011 15.5009 32.4269 15.9823L34.0834 14.8615C33.9255 14.6281 33.7828 14.3027 33.6783 13.8572L31.7311 14.3138ZM32.4389 15.9996C32.7829 16.4858 33.2269 16.8651 33.7624 17.1219L34.6271 15.3185C34.4065 15.2127 34.224 15.0599 34.0714 14.8442L32.4389 15.9996ZM33.7811 17.1306C34.3232 17.3769 34.9237 17.4819 35.5555 17.4802L35.5502 15.4802C35.1404 15.4813 34.8355 15.4129 34.6085 15.3098L33.7811 17.1306ZM35.5555 17.4802C35.9691 17.4791 36.3593 17.4453 36.7122 17.3648L36.268 15.4148C36.1005 15.453 35.8658 15.4794 35.5502 15.4802L35.5555 17.4802ZM36.7353 17.3593C37.0469 17.2805 37.346 17.1763 37.6105 17.0329L36.6576 15.2745C36.5841 15.3144 36.4539 15.3675 36.245 15.4203L36.7353 17.3593ZM37.622 17.0266C37.8304 16.9101 38.0416 16.7731 38.2161 16.6102L36.8513 15.1482C36.8519 15.1477 36.8482 15.1511 36.8392 15.1583C36.8302 15.1653 36.8172 15.175 36.7995 15.1872C36.7634 15.212 36.7132 15.2433 36.6461 15.2809L37.622 17.0266ZM38.5337 15.8765L38.5279 13.6695L36.5279 13.6749L36.5337 15.8819L38.5337 15.8765ZM37.5252 12.6722L35.1424 12.6786L35.1477 14.6786L37.5305 14.6722L37.5252 12.6722ZM36.1451 13.6759L36.1388 11.3224L34.1388 11.3277L34.1451 13.6813L36.1451 13.6759ZM35.1415 12.3251L40.952 12.3095L40.9467 10.3095L35.1362 10.3251L35.1415 12.3251Z" fill="black"/>
</svg>
