<?xml version="1.0" standalone="no"?>
<!DOCTYPE svg PUBLIC "-//W3C//DTD SVG 20010904//EN"
 "http://www.w3.org/TR/2001/REC-SVG-20010904/DTD/svg10.dtd">
<svg version="1.0" xmlns="http://www.w3.org/2000/svg"
 width="5952.000000pt" height="5952.000000pt" viewBox="0 0 5952.000000 5952.000000"
 preserveAspectRatio="xMidYMid meet">
<metadata>
Created by potrace 1.14, written by Peter Selinger 2001-2017
</metadata>
<g transform="translate(0.000000,5952.000000) scale(0.100000,-0.100000)"
fill="#000000" stroke="none">
<path d="M30755 29825 c0 -1613 3 -2936 7 -2940 6 -6 180 -10 203 -5 6 1 15 1
20 0 14 -2 208 -2 220 0 6 1 13 1 18 0 17 -4 78 -3 83 3 3 3 16 2 28 -3 13 -4
29 -4 36 0 8 5 18 6 24 3 9 -6 89 -8 111 -3 6 1 13 1 18 0 4 -1 23 -2 42 -2
19 0 38 1 43 2 4 1 12 1 17 0 10 -2 84 -1 115 1 8 1 20 0 25 -1 6 -1 22 -2 38
-1 l27 1 0 1263 c1 1090 3 1259 15 1242 8 -11 21 -29 29 -40 9 -11 56 -76 105
-145 50 -69 94 -130 99 -135 5 -6 17 -24 28 -40 10 -17 22 -34 27 -40 4 -5 21
-28 38 -50 17 -22 42 -56 55 -75 25 -36 82 -117 114 -160 10 -14 42 -58 72
-97 29 -40 71 -98 93 -129 22 -32 45 -62 50 -68 6 -7 15 -19 20 -28 6 -9 47
-67 93 -129 45 -63 111 -154 147 -204 36 -49 71 -98 79 -107 8 -9 20 -27 27
-40 6 -13 15 -25 18 -28 9 -8 63 -80 91 -122 14 -21 28 -38 33 -38 4 0 7 -4 7
-10 0 -9 43 -70 85 -122 7 -9 11 -19 8 -22 -4 -3 -2 -6 4 -6 5 0 27 -26 49
-57 21 -32 44 -64 51 -71 7 -7 20 -26 30 -42 9 -17 21 -30 25 -30 4 0 8 -5 8
-11 0 -6 11 -25 25 -43 32 -40 27 -32 120 -161 44 -60 83 -111 87 -113 4 -2 8
-8 8 -14 0 -5 8 -21 19 -34 l18 -23 20 22 c18 19 262 363 288 405 10 16 20 29
43 56 6 8 12 18 12 20 0 5 51 77 79 112 4 5 21 30 37 55 16 24 33 49 39 55 5
6 17 22 25 34 8 13 33 48 56 79 22 31 49 71 59 89 11 17 23 32 26 32 4 0 10 8
13 18 4 10 14 27 24 38 9 10 30 39 46 63 16 25 33 50 38 55 5 6 78 110 162
231 85 121 161 228 170 238 9 9 16 20 16 25 0 4 14 22 30 41 17 18 30 39 30
47 0 7 4 14 8 16 4 2 61 80 127 173 65 94 123 172 127 173 4 2 8 10 8 18 0 8
4 14 9 14 5 0 12 8 16 19 3 10 13 28 23 39 9 11 23 28 30 39 135 194 275 390
285 400 9 10 12 -257 12 -1329 l0 -1342 33 -7 c17 -3 32 -3 32 2 0 4 12 4 28
0 15 -5 37 -5 48 -1 11 5 27 5 34 0 7 -4 25 -4 41 0 15 5 30 6 33 3 6 -7 202
-7 213 0 4 2 17 1 28 -3 11 -4 30 -4 41 1 12 4 25 5 28 2 8 -8 76 -9 76 -1 0
4 13 3 29 -2 15 -4 34 -4 42 0 7 5 17 6 23 3 9 -6 89 -8 111 -3 6 1 13 1 18 0
16 -4 74 -3 83 2 5 3 18 2 29 -2 11 -4 30 -4 42 1 12 5 24 5 27 1 3 -5 20 -6
38 -4 l33 4 0 2939 c0 2882 -1 2992 -28 2927 -3 -7 -71 -103 -151 -213 -81
-110 -163 -222 -182 -250 -19 -27 -58 -82 -87 -122 -29 -40 -113 -157 -187
-260 -74 -103 -137 -190 -140 -193 -3 -3 -22 -27 -41 -55 -18 -27 -36 -52 -39
-55 -3 -3 -23 -31 -44 -62 -21 -32 -47 -66 -57 -77 -11 -11 -19 -23 -19 -26 0
-4 -6 -13 -12 -20 -7 -8 -23 -29 -36 -47 -45 -64 -211 -294 -246 -340 -20 -26
-36 -52 -36 -57 0 -5 -3 -11 -8 -13 -4 -1 -25 -28 -47 -58 -22 -30 -42 -57
-45 -60 -3 -3 -25 -34 -50 -70 -24 -36 -49 -70 -55 -77 -5 -6 -26 -34 -45 -62
-33 -49 -161 -225 -177 -246 -5 -5 -48 -66 -97 -135 -49 -68 -93 -129 -98
-135 -4 -5 -42 -57 -84 -115 -41 -58 -81 -113 -89 -123 -8 -9 -15 -19 -15 -22
0 -2 -18 -28 -39 -57 -22 -29 -110 -150 -195 -268 -85 -118 -161 -223 -168
-232 -7 -9 -20 -26 -28 -38 -21 -31 -88 -123 -98 -135 -15 -18 -177 -246 -187
-262 -5 -9 -17 -25 -26 -36 -10 -10 -32 -41 -50 -68 -19 -27 -38 -49 -44 -49
-5 0 -32 33 -58 73 -26 39 -66 97 -88 127 -22 30 -56 80 -77 110 -20 30 -41
60 -47 66 -5 6 -37 51 -70 99 -33 48 -81 116 -107 151 -27 36 -48 69 -48 74 0
5 -6 13 -13 17 -7 4 -23 25 -36 46 -13 21 -29 43 -35 50 -7 7 -19 23 -26 37
-7 13 -17 29 -22 34 -5 6 -31 43 -58 81 -27 39 -53 75 -57 80 -5 6 -33 46 -63
90 -30 44 -58 82 -62 83 -5 2 -8 10 -8 17 0 7 -4 15 -8 17 -9 3 -192 259 -207
289 -5 10 -13 19 -17 19 -5 0 -8 6 -8 14 0 8 -3 16 -8 18 -8 3 -82 105 -82
113 0 3 -8 13 -17 24 -22 22 -214 295 -228 322 -5 10 -13 19 -17 19 -5 0 -8 4
-8 10 0 5 -21 38 -47 73 -27 36 -54 73 -61 83 -78 116 -317 450 -324 452 -4 2
-8 8 -8 14 0 6 -28 49 -63 97 -34 47 -76 106 -92 131 -17 25 -34 50 -40 56 -5
6 -16 20 -23 30 -31 46 -154 220 -165 235 -7 8 -16 23 -22 31 -16 25 -133 192
-143 203 -4 6 -28 39 -52 75 -24 36 -46 67 -50 70 -3 3 -20 25 -36 50 -45 66
-177 254 -184 260 -5 5 -13 17 -48 72 -9 15 -22 30 -27 32 -8 2 -11 -906 -10
-2929z"/>
<path d="M40710 32740 c-5 -9 -18 -39 -28 -66 -11 -27 -32 -76 -47 -109 -15
-33 -34 -75 -41 -92 -8 -18 -20 -48 -28 -65 -7 -18 -25 -59 -40 -91 -14 -32
-26 -59 -26 -62 0 -5 -58 -135 -75 -168 -8 -16 -15 -33 -15 -38 0 -6 -14 -38
-31 -72 -17 -34 -31 -64 -31 -67 -4 -23 -12 -40 -17 -40 -4 0 -8 -6 -8 -12 0
-7 -7 -29 -16 -48 -61 -135 -77 -172 -77 -174 0 -2 -7 -20 -15 -40 -8 -20 -15
-39 -14 -42 0 -4 -3 -10 -8 -13 -4 -3 -20 -35 -35 -71 -32 -78 -196 -455 -226
-522 -12 -26 -22 -49 -22 -52 0 -2 -16 -40 -36 -83 -20 -43 -37 -84 -38 -91
-1 -7 -8 -18 -14 -24 -7 -7 -12 -17 -12 -23 0 -9 -51 -129 -164 -388 -30 -67
-55 -127 -55 -130 0 -2 -63 -145 -81 -182 -33 -68 -163 -374 -167 -392 -3 -13
-9 -23 -14 -23 -5 0 -9 -6 -9 -14 0 -7 -16 -49 -36 -92 -19 -43 -39 -88 -43
-99 -11 -27 -25 -58 -55 -128 -14 -31 -37 -83 -50 -115 -13 -31 -31 -70 -40
-87 -9 -16 -16 -38 -16 -47 0 -10 -4 -18 -10 -18 -5 0 -10 -6 -10 -14 0 -7
-14 -44 -31 -82 -49 -112 -56 -127 -78 -179 -12 -27 -26 -59 -31 -70 -22 -48
-63 -140 -65 -145 -8 -22 -21 -53 -41 -98 -13 -29 -24 -54 -24 -57 0 -2 -16
-38 -35 -79 -19 -42 -35 -79 -35 -81 0 -3 -13 -34 -29 -68 -53 -115 -151 -346
-151 -357 0 -5 -5 -10 -12 -10 -6 0 -8 -3 -5 -6 3 -4 1 -16 -5 -28 -7 -11 -13
-23 -13 -26 -2 -7 -19 -46 -54 -123 -17 -38 -31 -75 -31 -83 0 -8 -4 -14 -10
-14 -5 0 -9 -3 -8 -7 1 -5 -5 -24 -14 -43 -8 -19 -34 -80 -58 -135 -23 -55
-47 -106 -52 -112 -6 -7 -8 -13 -4 -13 3 0 -3 -17 -13 -37 -11 -21 -31 -67
-46 -103 -15 -36 -31 -73 -37 -83 -5 -11 -8 -21 -5 -23 7 -7 127 -9 127 -3 0
4 16 3 34 -1 19 -4 37 -6 39 -3 5 5 52 5 130 1 26 -2 47 0 47 3 0 4 15 4 33 0
18 -5 41 -5 52 -1 11 4 24 5 29 2 13 -7 212 -6 225 2 5 4 12 2 15 -3 4 -6 18
-6 36 -1 17 5 30 6 30 2 0 -6 65 -7 80 -2 3 2 10 1 15 0 23 -4 92 -3 100 2 6
3 18 2 29 -1 10 -4 30 -5 45 -3 27 4 26 3 93 162 11 25 23 54 28 65 5 11 26
61 46 110 20 50 45 109 55 132 10 23 19 45 19 48 0 4 7 21 15 38 38 83 115
273 115 284 0 7 5 13 10 13 6 0 10 6 10 13 0 14 86 227 96 236 3 3 426 6 941
6 827 0 936 -1 941 -15 7 -23 152 -391 167 -425 7 -16 31 -77 54 -135 22 -58
46 -118 52 -135 7 -16 13 -32 14 -35 1 -3 7 -18 14 -35 7 -16 24 -59 38 -95
13 -36 31 -80 40 -99 8 -18 16 -39 17 -45 1 -6 5 -17 10 -24 4 -8 11 -25 15
-39 6 -24 11 -26 57 -24 27 1 58 1 69 1 11 -1 27 -1 35 -1 37 2 109 1 153 -1
26 -2 47 0 47 3 0 4 15 4 33 0 18 -5 41 -5 52 -1 11 4 24 5 29 2 9 -5 199 -6
221 -2 6 1 13 1 18 0 17 -4 78 -3 83 3 3 3 16 2 28 -3 13 -4 29 -4 36 0 8 5
18 6 24 3 9 -6 89 -8 111 -3 6 1 13 1 18 0 4 -1 23 -2 42 -2 19 0 38 1 43 2 4
1 12 1 17 0 22 -5 116 -2 122 4 3 3 11 2 17 -3 6 -5 18 -6 27 -2 15 5 13 14
-13 71 -16 36 -33 74 -38 85 -4 11 -19 45 -33 75 -13 30 -28 66 -32 80 -4 14
-11 27 -16 30 -5 3 -10 15 -12 25 -2 11 -18 51 -35 88 -18 38 -32 71 -32 74 0
3 -14 34 -30 70 -46 99 -90 207 -87 214 1 4 -5 15 -14 25 -9 11 -28 48 -42 84
-30 74 -128 303 -159 370 -11 25 -24 54 -28 65 -4 11 -22 52 -40 90 -18 39
-33 75 -35 80 -2 11 -21 53 -66 153 -15 34 -29 66 -30 70 -1 4 -15 36 -31 70
-15 35 -28 66 -28 68 0 3 -14 35 -31 72 -33 73 -32 72 -80 182 -17 41 -42 98
-54 125 -12 28 -34 77 -48 110 -14 33 -53 122 -86 198 -34 77 -61 141 -61 143
0 2 -11 27 -24 56 -13 29 -38 87 -56 128 -18 41 -45 103 -61 138 -16 35 -29
66 -29 69 0 2 -14 35 -31 71 -17 37 -40 89 -51 116 -10 28 -30 73 -43 100 -12
28 -44 101 -70 161 -51 119 -58 134 -105 240 -18 39 -33 75 -34 80 -1 6 -9 26
-18 45 -43 98 -94 213 -168 385 -45 105 -93 214 -106 243 -13 29 -24 55 -24
58 0 3 -18 43 -40 90 -22 47 -40 89 -40 94 0 4 -9 25 -19 47 -22 44 -47 101
-86 193 -15 36 -38 90 -52 120 -14 30 -33 75 -43 100 -10 25 -34 80 -54 122
-19 42 -38 88 -42 102 -3 15 -10 29 -15 32 -5 3 -9 14 -9 25 0 10 -4 19 -8 19
-5 0 -15 19 -22 43 -8 23 -24 62 -37 86 -13 24 -23 47 -23 52 0 4 -15 38 -32
76 -29 59 -37 68 -61 69 -17 1 -31 -5 -37 -16z m32 -2582 c27 -68 51 -127 52
-133 2 -5 8 -21 13 -35 6 -14 32 -79 58 -145 26 -66 53 -135 61 -152 8 -18 26
-63 40 -100 14 -38 31 -82 39 -100 8 -17 15 -34 15 -38 0 -4 7 -23 16 -43 35
-81 42 -100 72 -177 17 -44 36 -93 43 -110 7 -16 13 -32 14 -35 1 -3 7 -18 13
-33 7 -16 12 -30 12 -31 0 -2 8 -21 17 -42 9 -22 17 -44 19 -50 1 -7 -167 -10
-552 -10 -305 0 -554 0 -554 1 0 2 50 127 67 165 8 19 19 44 24 55 4 11 25 61
44 110 20 50 44 106 52 125 9 19 16 41 16 48 0 6 4 12 9 12 4 0 8 8 8 18 0 10
4 22 9 28 4 5 13 23 19 39 11 31 86 215 102 250 29 65 50 115 50 121 0 4 8 26
19 48 10 23 47 110 81 194 35 84 65 150 68 147 3 -2 27 -60 54 -127z"/>
<path d="M51854 32751 c-11 -7 -12 -5857 -2 -5867 8 -8 141 -10 154 -2 5 3 18
2 29 -2 11 -4 32 -4 48 1 15 4 27 5 27 1 0 -4 16 -7 35 -7 19 0 35 4 35 8 0 5
4 5 10 2 9 -6 94 -9 115 -5 6 1 15 1 20 0 22 -4 152 -3 161 2 5 3 18 2 29 -2
11 -4 32 -4 48 1 15 4 27 5 27 1 0 -4 16 -7 35 -7 19 0 35 4 35 8 0 5 4 5 10
2 9 -6 94 -9 115 -5 6 1 15 1 20 0 9 -2 138 -3 160 -1 6 1 9 96 8 268 -1 148
-4 594 -6 993 -3 399 -6 730 -7 735 -1 6 -2 15 0 20 4 21 0 268 -4 272 -3 3
-1 15 4 28 5 13 6 25 3 29 -8 8 -12 986 -4 986 4 0 20 -13 37 -28 16 -16 58
-55 94 -87 111 -99 293 -264 390 -352 25 -23 56 -51 70 -63 33 -28 158 -141
232 -210 33 -30 68 -61 77 -70 44 -37 211 -189 281 -253 19 -17 100 -90 180
-162 80 -71 165 -148 188 -170 24 -22 54 -49 66 -60 12 -11 62 -56 111 -100
49 -44 96 -87 105 -95 9 -8 39 -35 66 -59 81 -72 216 -194 245 -221 15 -14 58
-53 96 -87 38 -34 83 -74 100 -90 16 -15 63 -57 103 -93 40 -36 83 -74 94 -85
12 -11 42 -38 67 -60 24 -22 87 -79 139 -126 52 -48 112 -102 134 -120 21 -19
53 -47 70 -64 18 -16 68 -61 111 -100 43 -38 92 -83 110 -100 17 -16 58 -53
91 -82 33 -29 78 -69 100 -90 22 -21 62 -58 89 -82 28 -24 85 -75 129 -115 87
-79 107 -97 196 -176 33 -30 87 -79 118 -107 31 -29 64 -53 73 -53 14 0 16
257 16 2940 0 2684 -1 2940 -16 2941 -9 0 -260 1 -559 2 -536 2 -542 2 -543
-18 -2 -40 0 -361 6 -1270 3 -511 8 -1196 10 -1522 l3 -592 -47 43 c-25 24
-63 59 -83 77 -50 46 -206 190 -243 224 -16 15 -68 62 -114 104 -46 42 -101
92 -121 111 -21 19 -74 69 -120 110 -45 41 -97 89 -114 105 -18 17 -77 71
-131 120 -101 93 -110 102 -212 195 -33 30 -106 98 -163 150 -57 52 -118 109
-137 127 -18 17 -33 30 -33 28 0 -1 -31 27 -70 64 -38 36 -92 86 -120 111 -50
44 -75 68 -218 202 -40 37 -72 66 -72 64 0 -2 -24 20 -53 48 -30 28 -93 87
-141 131 -49 44 -105 96 -125 115 -20 19 -79 73 -131 120 -51 47 -105 96 -119
109 -47 42 -224 206 -235 216 -6 6 -67 62 -136 125 -69 63 -137 125 -152 139
-14 14 -43 41 -65 60 -43 38 -210 192 -317 291 -38 36 -82 76 -97 90 -15 14
-65 59 -110 100 -45 41 -98 90 -118 108 -20 18 -59 55 -86 81 -50 47 -84 65
-101 52z"/>
<path d="M25897 32594 c-1 -1 -49 -4 -107 -8 -58 -3 -116 -8 -129 -11 -13 -2
-47 -7 -75 -10 -54 -5 -81 -10 -161 -25 -75 -15 -87 -18 -123 -29 -18 -5 -36
-10 -40 -11 -46 -6 -239 -70 -362 -122 -141 -58 -291 -137 -413 -214 -37 -24
-72 -44 -77 -44 -5 0 -14 -8 -19 -17 -6 -10 -11 -15 -11 -11 0 7 -25 -11 -56
-40 -8 -7 -14 -11 -14 -7 0 6 -58 -38 -131 -100 -19 -16 -58 -49 -87 -73 -63
-53 -221 -211 -287 -288 -106 -123 -295 -387 -295 -413 0 -5 -4 -11 -8 -13
-10 -4 -16 -14 -98 -180 -83 -167 -139 -299 -158 -373 -1 -5 -13 -41 -25 -80
-13 -38 -25 -83 -27 -98 -2 -15 -8 -37 -14 -47 -6 -11 -9 -20 -6 -20 2 0 0
-17 -5 -37 -17 -69 -38 -185 -45 -253 -2 -19 -7 -64 -11 -100 -10 -92 -9 -459
1 -555 4 -44 10 -93 11 -110 7 -71 42 -243 72 -355 45 -170 84 -279 162 -452
11 -24 18 -46 18 -49 -1 -4 5 -15 13 -25 9 -11 27 -43 40 -71 14 -29 28 -53
33 -53 4 0 7 -6 7 -13 0 -28 198 -316 303 -441 41 -48 281 -292 327 -331 70
-61 207 -163 295 -222 90 -60 253 -158 268 -161 4 -1 53 -24 110 -50 56 -27
134 -61 172 -75 39 -14 79 -29 90 -33 11 -4 22 -8 25 -9 3 -1 38 -11 79 -24
101 -31 90 -28 246 -61 77 -16 160 -32 185 -34 25 -3 61 -7 80 -10 19 -3 86
-7 148 -10 63 -3 118 -8 122 -11 5 -3 11 -1 15 5 4 6 11 7 17 4 17 -10 51 -11
71 -2 11 6 17 5 17 -2 0 -6 4 -9 9 -6 4 3 55 8 112 11 57 4 118 8 134 10 17 2
53 6 80 10 28 3 86 12 130 21 44 8 91 17 105 20 14 3 33 7 42 10 9 3 25 6 35
8 23 5 131 35 163 46 34 11 171 61 195 70 87 34 309 142 313 153 2 4 7 7 12 7
9 0 131 70 140 80 3 3 30 21 60 39 47 29 205 144 220 160 3 3 32 28 65 55 97
80 297 286 375 386 19 25 39 50 45 57 5 7 15 18 21 26 28 34 162 239 206 315
68 117 169 330 194 407 2 6 16 44 30 85 23 65 44 134 59 190 16 64 35 152 40
185 4 22 8 47 10 55 2 8 7 38 11 65 3 28 8 52 9 55 7 12 19 240 18 360 0 155
-11 325 -27 415 -5 26 -15 83 -20 115 -2 14 -10 48 -16 75 -6 28 -13 57 -15
65 -8 39 -59 207 -71 237 -8 18 -14 35 -14 38 0 3 -7 22 -16 43 -9 20 -22 53
-29 72 -42 115 -192 393 -286 530 -65 94 -93 134 -100 140 -3 3 -12 14 -20 26
-63 92 -264 307 -379 404 -29 25 -58 50 -64 56 -50 47 -303 224 -386 270 -19
10 -37 21 -40 24 -13 13 -263 142 -314 161 -17 7 -33 13 -36 14 -3 1 -22 9
-42 18 -21 10 -43 17 -50 17 -8 0 -24 7 -36 16 -12 8 -22 13 -22 10 0 -3 -29
6 -65 19 -36 13 -69 24 -73 25 -4 0 -25 5 -47 11 -22 6 -47 13 -55 14 -8 2
-51 11 -95 20 -44 9 -89 18 -100 20 -11 2 -36 6 -55 9 -99 17 -490 40 -503 30z
m303 -1087 c150 -18 350 -75 485 -137 103 -47 298 -167 351 -215 7 -5 31 -26
55 -45 117 -95 239 -233 330 -374 32 -50 63 -96 69 -103 5 -7 10 -17 10 -23 0
-6 11 -28 25 -50 14 -22 25 -46 25 -53 0 -7 4 -17 8 -22 5 -6 18 -35 29 -65
12 -30 25 -64 29 -75 4 -11 8 -22 9 -25 0 -3 8 -27 18 -55 15 -47 35 -125 43
-170 1 -11 5 -29 7 -40 42 -198 39 -492 -8 -762 -5 -29 -44 -174 -52 -193 -8
-19 -8 -19 -18 -55 -5 -16 -14 -45 -22 -62 -7 -18 -13 -35 -13 -38 -1 -11
-118 -234 -141 -266 -147 -211 -229 -301 -397 -439 -13 -10 -49 -36 -80 -57
-31 -21 -58 -41 -60 -45 -2 -5 -10 -8 -18 -8 -8 0 -14 -5 -14 -11 0 -5 -4 -8
-9 -4 -5 3 -12 1 -16 -5 -17 -27 -405 -184 -405 -164 0 3 -8 0 -17 -5 -10 -5
-43 -12 -73 -16 -30 -4 -58 -9 -61 -11 -14 -8 -179 -18 -284 -17 -107 1 -232
9 -278 19 -12 3 -34 6 -49 9 -15 2 -35 6 -45 9 -10 3 -32 8 -50 11 -40 6 -240
73 -273 90 -14 8 -58 30 -98 50 -75 36 -108 54 -126 68 -6 4 -40 28 -76 54
-133 95 -255 209 -360 339 -32 40 -120 164 -120 170 0 3 -10 20 -22 36 -24 35
-111 210 -123 248 -4 14 -13 39 -20 55 -27 62 -68 213 -81 295 -3 19 -7 46 -9
60 -26 160 -26 445 0 595 26 146 50 246 78 320 7 17 12 33 13 38 1 4 3 9 4 12
1 3 3 8 5 13 21 76 176 362 222 410 7 7 13 16 13 20 0 4 13 21 28 39 15 17 41
49 59 70 36 45 151 157 203 199 19 16 37 31 40 34 3 3 32 24 65 46 118 80 175
114 175 107 0 -5 4 -3 8 2 7 11 57 36 156 80 59 26 231 78 296 89 19 3 46 8
60 11 14 3 54 8 90 12 36 3 66 7 68 8 4 3 304 -4 342 -8z"/>
<path d="M46997 32594 c-1 -1 -57 -4 -123 -8 -67 -3 -128 -8 -135 -10 -8 -3
-34 -7 -59 -10 -88 -11 -155 -22 -215 -37 -22 -5 -49 -11 -61 -13 -11 -2 -25
-6 -31 -9 -5 -3 -23 -8 -39 -11 -16 -3 -63 -17 -104 -31 -41 -14 -79 -27 -85
-28 -12 -4 -123 -45 -150 -56 -44 -18 -320 -155 -325 -161 -3 -4 -32 -22 -65
-40 -33 -19 -69 -42 -79 -52 -11 -10 -26 -18 -33 -18 -7 0 -13 -4 -13 -10 0
-5 -5 -10 -11 -10 -14 0 -229 -165 -308 -237 -61 -55 -177 -173 -270 -273 -22
-25 -44 -53 -47 -62 -3 -10 -9 -18 -13 -18 -6 0 -42 -46 -128 -165 -12 -16
-36 -55 -54 -85 -18 -30 -35 -57 -39 -60 -32 -26 -239 -460 -254 -532 -2 -7
-8 -26 -15 -43 -11 -26 -47 -146 -56 -185 -1 -8 -8 -35 -15 -60 -7 -25 -15
-58 -17 -75 -7 -40 -11 -60 -13 -60 -1 0 -3 -9 -4 -20 -2 -11 -6 -42 -10 -70
-25 -171 -28 -215 -29 -435 0 -187 6 -325 18 -390 3 -14 7 -50 11 -80 3 -30 8
-58 10 -61 2 -4 6 -24 10 -44 6 -38 10 -57 20 -97 3 -13 7 -33 10 -46 26 -126
125 -394 207 -562 72 -147 253 -437 279 -448 4 -2 8 -8 8 -13 0 -5 8 -18 18
-30 119 -142 161 -189 267 -294 61 -60 126 -121 144 -135 17 -14 42 -34 55
-45 12 -11 37 -31 56 -45 18 -14 49 -37 68 -52 19 -16 38 -28 41 -28 3 0 18
-11 33 -25 15 -14 29 -24 30 -23 2 1 23 -11 48 -28 85 -58 351 -200 390 -209
3 -1 27 -11 53 -23 27 -12 54 -22 61 -22 7 0 16 -4 22 -9 5 -5 41 -18 79 -30
39 -12 77 -25 85 -28 8 -3 24 -8 35 -10 11 -2 31 -8 45 -13 14 -5 59 -17 100
-26 149 -31 158 -33 215 -40 28 -3 59 -8 70 -10 123 -25 658 -25 785 0 14 3
57 10 95 16 39 7 75 13 80 14 6 1 37 8 70 15 33 7 71 16 85 20 14 5 61 19 105
31 44 12 89 26 100 31 11 4 63 25 115 45 116 44 260 113 358 171 41 24 75 43
77 43 10 0 297 201 315 220 3 3 27 24 55 45 69 56 292 277 357 355 74 90 161
208 225 308 51 79 63 99 111 185 51 90 122 237 153 317 33 85 70 192 75 219 3
13 9 31 13 40 8 14 54 216 65 281 3 14 5 25 6 25 1 0 3 20 6 44 2 25 7 56 9
70 25 127 24 607 -1 722 -3 13 -7 42 -9 64 -3 22 -7 51 -11 65 -3 14 -7 39 -9
55 -5 35 -62 252 -77 295 -3 8 -16 44 -29 80 -30 88 -90 234 -111 274 -6 11
-27 52 -48 91 -71 135 -84 156 -185 309 -166 252 -386 490 -622 673 -49 37
-89 71 -91 75 -2 5 -7 8 -12 8 -4 0 -52 30 -107 66 -54 36 -107 70 -118 75
-11 5 -33 18 -50 28 -31 20 -285 148 -320 161 -11 5 -36 15 -55 23 -34 15
-124 47 -145 52 -5 1 -19 5 -30 9 -49 19 -72 26 -95 30 -14 3 -43 10 -65 16
-22 6 -49 13 -60 15 -11 2 -54 11 -95 19 -42 8 -96 18 -120 21 -25 3 -61 8
-80 10 -68 10 -396 25 -403 19z m303 -1088 c25 -3 56 -8 70 -11 14 -3 39 -7
55 -10 17 -3 55 -12 85 -20 30 -9 60 -17 65 -19 39 -9 124 -42 143 -54 12 -8
22 -11 22 -8 0 11 186 -91 278 -151 211 -139 375 -308 525 -540 26 -40 44 -73
41 -73 -3 0 3 -12 14 -27 16 -24 54 -98 57 -113 1 -3 6 -16 12 -30 19 -45 55
-135 54 -137 0 -2 2 -10 4 -18 3 -8 7 -22 10 -30 2 -8 5 -17 5 -20 1 -3 6 -19
11 -37 5 -18 12 -49 15 -68 3 -19 8 -38 9 -41 2 -3 7 -28 11 -55 3 -27 8 -58
11 -69 15 -69 21 -343 9 -470 -7 -78 -19 -163 -31 -215 -4 -14 -8 -38 -11 -55
-3 -16 -8 -37 -11 -45 -3 -8 -7 -17 -7 -20 -13 -71 -139 -380 -158 -388 -5 -2
-8 -8 -8 -13 0 -9 -90 -156 -117 -189 -107 -137 -207 -239 -324 -335 -21 -17
-136 -96 -194 -133 -51 -32 -274 -131 -306 -136 -8 -1 -19 -5 -25 -8 -6 -4
-21 -9 -35 -12 -13 -3 -42 -10 -64 -15 -22 -6 -53 -12 -70 -15 -16 -3 -41 -8
-55 -11 -90 -18 -352 -25 -460 -12 -102 12 -125 15 -164 22 -21 4 -48 9 -60
12 -11 3 -34 7 -51 10 -16 3 -34 9 -40 13 -5 4 -26 11 -45 15 -29 6 -53 14
-90 31 -3 1 -16 5 -30 10 -49 15 -238 114 -306 160 -100 68 -216 166 -300 254
-66 70 -102 114 -166 200 -26 37 -48 72 -48 78 0 7 -3 12 -8 12 -4 0 -12 8
-17 19 -6 10 -23 43 -40 72 -68 124 -146 328 -170 444 -24 115 -33 163 -41
235 -9 79 -11 325 -3 390 4 30 10 78 13 105 14 116 75 354 98 383 6 6 8 12 5
12 -17 0 103 238 176 352 61 95 64 98 148 197 269 315 685 538 1078 576 30 3
56 7 58 9 6 5 325 -1 373 -8z"/>
<path d="M4912 32532 l-22 -3 0 -2825 0 -2824 28 -1 c15 -1 31 0 37 1 5 1 17
1 25 1 107 -3 222 -2 227 2 3 3 15 2 27 -2 11 -5 30 -5 41 -1 11 4 24 5 29 2
14 -8 76 -8 76 0 0 4 13 3 29 -2 15 -4 34 -4 42 0 7 5 17 6 23 3 9 -6 89 -8
111 -3 6 1 13 1 18 0 16 -4 74 -3 83 2 5 3 18 2 29 -2 11 -4 30 -4 42 1 12 5
25 4 27 0 3 -5 24 -5 46 -1 22 4 40 5 40 1 0 -7 274 -6 294 2 8 3 17 3 20 -1
8 -8 103 -5 116 3 6 3 10 3 10 -2 0 -6 161 -9 180 -2 3 1 10 0 15 -1 22 -5
124 -2 134 5 6 3 11 3 11 -2 0 -9 67 -9 76 0 3 3 16 2 28 -2 11 -4 32 -5 46
-1 14 4 33 3 43 -2 9 -5 17 -5 17 -1 0 4 30 8 68 9 98 1 251 17 382 39 64 11
245 55 275 68 17 6 36 13 43 14 32 7 61 18 110 39 18 8 39 14 47 14 8 0 15 5
15 12 0 6 3 8 7 5 9 -10 223 104 333 178 98 66 244 199 296 270 16 22 31 42
34 45 18 16 78 118 115 195 69 141 110 280 140 470 23 147 24 433 2 535 -2 8
-7 38 -12 65 -4 28 -11 55 -16 60 -4 6 -9 23 -11 37 -2 15 -7 30 -11 34 -4 4
-7 14 -7 23 0 21 -111 241 -122 241 -4 0 -8 5 -8 11 0 6 -17 33 -37 59 -21 27
-49 63 -63 81 -32 42 -153 163 -210 211 -25 21 -51 43 -58 49 -34 28 -244 157
-300 183 -34 16 -62 33 -62 38 0 4 13 14 28 22 75 39 248 191 335 296 38 45
92 123 104 150 4 8 10 17 13 20 7 5 41 75 80 165 21 49 70 218 75 259 2 17 6
41 9 54 12 52 19 164 19 282 0 111 -3 153 -17 265 -14 99 -78 293 -127 381
-36 65 -44 79 -49 84 -3 3 -19 25 -35 49 -30 45 -138 159 -205 216 -72 62
-320 215 -320 197 0 -4 -4 -2 -8 4 -14 20 -275 116 -377 139 -11 2 -54 11 -95
20 -100 22 -144 30 -238 40 -26 3 -61 8 -79 10 -18 2 -37 6 -43 10 -5 3 -10 1
-10 -5 0 -6 -5 -8 -10 -5 -6 3 -47 9 -93 12 -88 5 -1817 10 -1855 5z m1868
-1084 c8 -3 33 -8 55 -12 61 -12 122 -34 204 -74 156 -78 263 -229 277 -392
10 -115 11 -161 3 -165 -4 -3 -5 -13 -3 -23 6 -21 -29 -159 -53 -210 -86 -187
-244 -309 -443 -340 -25 -4 -218 -7 -430 -7 l-385 0 -1 616 0 616 380 -3 c210
-1 388 -4 396 -6z m91 -2312 c42 -4 87 -9 100 -12 13 -2 36 -6 50 -8 67 -10
200 -53 270 -87 160 -78 255 -194 289 -352 11 -49 14 -196 6 -232 -2 -11 -9
-42 -16 -70 -29 -129 -147 -270 -281 -337 -80 -40 -159 -71 -159 -61 0 3 -6 1
-12 -5 -12 -9 -29 -14 -98 -27 -41 -8 -102 -17 -140 -20 -19 -2 -35 -4 -35 -5
0 -3 -820 -6 -830 -3 -7 2 -10 206 -9 611 0 334 2 609 3 612 2 8 768 4 862 -4z"/>
<path d="M10653 32532 l-23 -3 0 -2824 c0 -2683 1 -2824 18 -2824 26 -1 120
-1 135 0 6 0 42 -1 80 -2 37 -1 70 0 73 4 3 3 18 2 33 -3 16 -4 34 -4 41 0 7
5 23 5 34 0 12 -4 31 -4 43 1 12 4 25 4 28 0 3 -5 21 -5 40 -1 19 4 35 5 35 1
0 -7 138 -6 146 2 3 3 18 2 33 -3 16 -4 34 -4 41 0 7 5 23 5 34 0 12 -4 29 -4
40 -1 10 4 35 6 55 4 89 -9 201 -7 202 2 1 6 2 523 3 1150 l1 1140 1262 0
1263 1 2 -1145 3 -1145 27 -7 c16 -4 30 -3 33 1 3 5 18 5 34 0 15 -4 34 -4 42
0 7 5 17 6 23 3 9 -6 89 -8 111 -3 6 1 13 1 18 0 16 -4 74 -3 83 2 5 3 18 2
29 -2 11 -4 30 -4 42 1 12 5 25 4 27 0 3 -5 24 -5 46 -1 22 4 40 5 40 1 0 -7
274 -6 294 2 8 3 17 3 20 -1 8 -8 103 -5 116 3 6 3 10 3 10 -2 0 -9 99 -7 109
2 6 6 10 5609 3 5635 -3 13 -71 15 -550 13 -301 -1 -550 -2 -554 -2 -5 -1 -8
-514 -8 -1140 l0 -1139 -1263 0 -1263 0 1 1139 c0 1132 0 1139 -20 1140 -67 2
-1054 3 -1072 1z"/>
<path d="M17635 32532 l-30 -3 2 -2802 c1 -1541 2 -2811 2 -2823 1 -11 7 -21
14 -22 25 -2 112 -4 122 -2 6 1 15 1 20 0 22 -4 152 -3 161 2 5 3 18 2 29 -2
11 -4 32 -4 48 1 15 4 27 5 27 1 0 -4 16 -7 35 -7 19 0 35 4 35 8 0 5 4 5 10
2 13 -8 108 -11 116 -3 3 4 12 4 20 1 23 -9 214 -9 214 0 0 5 5 5 10 2 6 -4
39 -6 73 -6 64 1 80 1 122 1 39 0 55 3 56 9 5 31 2 124 -3 127 -4 3 -3 16 2
30 7 17 7 23 0 19 -6 -4 -7 2 -2 17 9 29 9 189 -1 205 -4 6 -4 14 0 16 6 4 7
73 2 172 0 6 1 36 3 68 2 32 0 61 -5 64 -4 2 -4 10 0 16 5 7 7 46 6 87 -4 103
-3 142 4 153 4 6 1 7 -7 2 -9 -6 -11 -4 -5 5 10 16 12 270 2 277 -4 2 -4 12 1
21 9 21 9 83 -2 100 -4 6 -3 12 2 12 6 0 7 14 2 34 -4 19 -5 38 -1 44 8 14 6
256 -2 270 -4 6 -3 13 2 17 6 3 8 11 5 18 -4 11 69 13 370 13 206 -1 376 -3
378 -6 44 -61 278 -423 278 -429 0 -5 4 -11 8 -13 5 -1 93 -131 197 -288 103
-157 199 -302 214 -323 14 -21 34 -52 45 -70 10 -18 22 -34 26 -37 4 -3 9 -9
11 -15 9 -22 243 -370 251 -373 4 -2 8 -8 8 -13 0 -5 34 -61 76 -123 71 -106
78 -114 100 -106 13 5 26 5 29 1 3 -5 21 -5 40 -1 19 4 35 5 35 1 0 -7 138 -6
146 2 3 3 18 2 33 -3 16 -4 34 -4 41 0 7 5 23 5 34 0 12 -4 29 -4 40 -1 10 4
41 4 68 1 27 -4 51 -3 54 1 2 4 17 4 33 -1 15 -4 34 -4 41 0 7 5 23 5 34 0 11
-4 33 -4 48 1 16 4 28 5 28 1 0 -4 16 -7 35 -7 19 0 35 4 35 8 0 5 4 5 10 2 9
-6 94 -9 115 -5 6 1 15 1 20 0 33 -7 340 -1 342 6 2 6 -6 20 -17 32 -11 11
-20 24 -20 28 0 3 -13 26 -30 51 -16 24 -30 48 -30 53 0 4 -3 10 -7 12 -11 4
-63 86 -63 98 0 5 -4 10 -10 10 -5 0 -12 11 -16 25 -3 14 -9 25 -13 25 -4 0
-15 15 -26 33 -10 17 -56 90 -102 160 -46 70 -83 130 -83 133 0 8 -44 69 -52
72 -5 2 -8 8 -8 13 0 10 -90 151 -103 160 -5 3 -7 8 -6 10 3 4 -45 80 -122
197 -16 24 -29 45 -29 48 0 3 -5 10 -10 17 -6 7 -23 32 -39 57 -16 25 -83 130
-150 233 -67 104 -121 193 -121 198 0 5 -4 9 -10 9 -5 0 -10 5 -10 10 0 6 -5
16 -10 23 -6 7 -37 55 -70 107 -33 52 -65 102 -70 110 -6 8 -26 38 -44 67
l-34 52 24 15 c13 9 28 16 33 16 5 0 11 4 13 8 2 5 26 23 53 42 59 40 54 37
130 98 102 83 287 293 318 362 4 8 16 29 27 45 17 26 65 122 116 230 44 95
118 342 138 460 3 17 8 41 10 55 5 23 14 98 22 180 5 45 4 321 0 380 -7 87
-27 212 -51 325 -22 106 -95 300 -151 402 -21 37 -42 78 -48 90 -6 13 -14 23
-18 23 -5 0 -8 5 -8 11 0 6 -30 50 -67 98 -170 217 -389 395 -635 516 -60 30
-110 54 -111 53 -1 0 -20 7 -42 17 -22 9 -47 18 -56 20 -8 2 -33 11 -55 20
-21 9 -41 16 -44 16 -9 -1 -84 20 -110 29 -14 5 -41 12 -60 15 -19 3 -42 8
-50 10 -8 2 -28 7 -45 10 -16 2 -39 7 -50 9 -11 2 -42 7 -70 10 -27 4 -65 10
-84 13 -43 6 -101 11 -226 19 -99 6 -1852 12 -1910 6z m2085 -1086 c14 -4 41
-9 60 -12 19 -3 39 -8 43 -11 4 -2 21 -6 38 -8 62 -8 200 -85 259 -144 107
-106 213 -314 233 -456 2 -12 6 -25 8 -30 15 -28 19 -262 7 -346 -17 -116 -91
-284 -180 -404 -108 -148 -272 -238 -493 -271 -27 -4 -257 -8 -510 -8 l-460
-1 -1 50 c0 28 -4 56 -8 63 -4 7 -3 12 2 12 6 0 7 13 3 33 -5 18 -5 40 -2 49
3 10 5 84 3 165 -1 81 -2 153 -2 158 0 6 0 75 0 155 0 80 0 152 0 160 0 8 1
57 2 108 2 52 -1 96 -5 99 -4 3 -4 10 0 16 5 7 7 46 6 87 -3 88 -3 143 0 305
1 66 -2 126 -7 133 -5 7 -5 12 1 12 5 0 8 22 7 49 l-2 48 486 -2 c268 -2 498
-6 512 -9z"/>
</g>
</svg>
